HIERARCHY
ROOT Hips
{
  OFFSET -0.078 41.277 -228.955
  CHANNELS 6 Xposition Yposition Zposition Zrotation Xrotation Yrotation
  JOINT LeftUpLeg
  {
    OFFSET 7.168 -5.227 4.430
    CHANNELS 6 Xposition Yposition Zposition Zrotation Xrotation Yrotation
    JOINT LeftLeg
    {
      OFFSET -0.000 -44.618 0.000
      CHANNELS 6 Xposition Yposition Zposition Zrotation Xrotation Yrotation
      JOINT LeftFoot
      {
        OFFSET -0.000 -38.510 -0.000
        CHANNELS 6 Xposition Yposition Zposition Zrotation Xrotation Yrotation
        End Site
        {
          OFFSET 0.000 -9.490 5.479
        }
      }
    }
  }
  JOINT RightUpLeg
  {
    OFFSET -7.085 -5.419 4.527
    CHANNELS 6 Xposition Yposition Zposition Zrotation Xrotation Yrotation
    JOINT RightLeg
    {
      OFFSET -0.000 -44.646 0.000
      CHANNELS 6 Xposition Yposition Zposition Zrotation Xrotation Yrotation
      JOINT RightFoot
      {
        OFFSET -0.000 -38.439 -0.000
        CHANNELS 6 Xposition Yposition Zposition Zrotation Xrotation Yrotation
        End Site
        {
          OFFSET 0.000 -8.933 5.158
        }
      }
    }
  }
  JOINT Spine
  {
    OFFSET 0.000 4.666 -4.666
    CHANNELS 6 Xposition Yposition Zposition Zrotation Xrotation Yrotation
    JOINT LeftShoulder
    {
      OFFSET -0.000 36.302 0.000
      CHANNELS 6 Xposition Yposition Zposition Zrotation Xrotation Yrotation
      JOINT LeftArm
      {
        OFFSET 19.155 0.000 -0.000
        CHANNELS 6 Xposition Yposition Zposition Zrotation Xrotation Yrotation
        JOINT LeftForeArm
        {
          OFFSET 24.602 0.000 0.000
          CHANNELS 6 Xposition Yposition Zposition Zrotation Xrotation Yrotation
          JOINT LeftHand
          {
            OFFSET 25.100 0.000 -0.000
            CHANNELS 6 Xposition Yposition Zposition Zrotation Xrotation Yrotation
            JOINT LeftHandThumb1
            {
            OFFSET 4.970 -0.620 3.390
            CHANNELS 6 Xposition Yposition Zposition Zrotation Xrotation Yrotation
              JOINT LeftHandThumb2
              {
              OFFSET 2.150 -0.000 0.000
              CHANNELS 6 Xposition Yposition Zposition Zrotation Xrotation Yrotation
                JOINT LeftHandThumb3
                {
                OFFSET 2.200 -0.000 0.000
                CHANNELS 6 Xposition Yposition Zposition Zrotation Xrotation Yrotation
                  JOINT LeftHandThumb4
                  {
                  OFFSET 1.700 -0.000 0.000
                  CHANNELS 6 Xposition Yposition Zposition Zrotation Xrotation Yrotation
                  }
                }
              }
            }
            JOINT LeftHandIndex1
            {
            OFFSET 8.730 0.680 2.070
            CHANNELS 6 Xposition Yposition Zposition Zrotation Xrotation Yrotation
              JOINT LeftHandIndex2
              {
              OFFSET 2.670 -0.000 0.000
              CHANNELS 6 Xposition Yposition Zposition Zrotation Xrotation Yrotation
                JOINT LeftHandIndex3
                {
                OFFSET 2.130 -0.000 0.000
                CHANNELS 6 Xposition Yposition Zposition Zrotation Xrotation Yrotation
                  JOINT LeftHandIndex4
                  {
                  OFFSET 1.800 -0.000 0.000
                  CHANNELS 6 Xposition Yposition Zposition Zrotation Xrotation Yrotation
                  }
                }
              }
            }
            JOINT LeftHandMiddle1
            {
            OFFSET 9.220 0.670 0.550
            CHANNELS 6 Xposition Yposition Zposition Zrotation Xrotation Yrotation
              JOINT LeftHandMiddle2
              {
              OFFSET 2.660 -0.000 0.000
              CHANNELS 6 Xposition Yposition Zposition Zrotation Xrotation Yrotation
                JOINT LeftHandMiddle3
                {
                OFFSET 2.280 -0.000 0.000
                CHANNELS 6 Xposition Yposition Zposition Zrotation Xrotation Yrotation
                  JOINT LeftHandMiddle4
                  {
                  OFFSET 1.500 -0.000 0.000
                  CHANNELS 6 Xposition Yposition Zposition Zrotation Xrotation Yrotation
                  }
                }
              }
            }
            JOINT LeftHandRing1
            {
            OFFSET 9.250 0.670 -1.130
            CHANNELS 6 Xposition Yposition Zposition Zrotation Xrotation Yrotation
              JOINT LeftHandRing2
              {
              OFFSET 2.470 -0.000 0.000
              CHANNELS 6 Xposition Yposition Zposition Zrotation Xrotation Yrotation
                JOINT LeftHandRing3
                {
                OFFSET 2.210 -0.000 0.000
                CHANNELS 6 Xposition Yposition Zposition Zrotation Xrotation Yrotation
                  JOINT LeftHandRing4
                  {
                  OFFSET 1.800 -0.000 0.000
                  CHANNELS 6 Xposition Yposition Zposition Zrotation Xrotation Yrotation
                  }
                }
              }
            }
            JOINT LeftHandPinky1
            {
            OFFSET 9.350 0.660 -2.720
            CHANNELS 6 Xposition Yposition Zposition Zrotation Xrotation Yrotation
              JOINT LeftHandPinky2
              {
              OFFSET 1.630 -0.000 0.000
              CHANNELS 6 Xposition Yposition Zposition Zrotation Xrotation Yrotation
                JOINT LeftHandPinky3
                {
                OFFSET 1.710 -0.000 0.000
                CHANNELS 6 Xposition Yposition Zposition Zrotation Xrotation Yrotation
                  JOINT LeftHandPinky4
                  {
                  OFFSET 1.800 -0.000 0.000
                  CHANNELS 6 Xposition Yposition Zposition Zrotation Xrotation Yrotation
                  }
                }
              }
            }
          }
        }
      }
    }
    JOINT RightShoulder
    {
      OFFSET -0.000 36.302 0.000
      CHANNELS 6 Xposition Yposition Zposition Zrotation Xrotation Yrotation
      JOINT RightArm
      {
        OFFSET -20.161 0.000 -0.000
        CHANNELS 6 Xposition Yposition Zposition Zrotation Xrotation Yrotation
        JOINT RightForeArm
        {
          OFFSET -25.319 0.000 0.000
          CHANNELS 6 Xposition Yposition Zposition Zrotation Xrotation Yrotation
          JOINT RightHand
          {
            OFFSET -25.618 0.000 -0.000
            CHANNELS 6 Xposition Yposition Zposition Zrotation Xrotation Yrotation
            JOINT RightHandThumb1
            {
            OFFSET -4.970 -0.620 3.390
            CHANNELS 6 Xposition Yposition Zposition Zrotation Xrotation Yrotation
              JOINT RightHandThumb2
              {
              OFFSET -2.150 0.000 0.000
              CHANNELS 6 Xposition Yposition Zposition Zrotation Xrotation Yrotation
                JOINT RightHandThumb3
                {
                OFFSET -2.200 0.000 0.000
                CHANNELS 6 Xposition Yposition Zposition Zrotation Xrotation Yrotation
                  JOINT RightHandThumb4
                  {
                  OFFSET -1.700 0.000 0.000
                  CHANNELS 6 Xposition Yposition Zposition Zrotation Xrotation Yrotation
                  }
                }
              }
            }
            JOINT RightHandIndex1
            {
            OFFSET -8.730 0.680 2.070
            CHANNELS 6 Xposition Yposition Zposition Zrotation Xrotation Yrotation
              JOINT RightHandIndex2
              {
              OFFSET -2.670 0.000 0.000
              CHANNELS 6 Xposition Yposition Zposition Zrotation Xrotation Yrotation
                JOINT RightHandIndex3
                {
                OFFSET -2.130 0.000 0.000
                CHANNELS 6 Xposition Yposition Zposition Zrotation Xrotation Yrotation
                  JOINT RightHandIndex4
                  {
                  OFFSET -1.800 0.000 0.000
                  CHANNELS 6 Xposition Yposition Zposition Zrotation Xrotation Yrotation
                  }
                }
              }
            }
            JOINT RightHandMiddle1
            {
            OFFSET -9.220 0.670 0.550
            CHANNELS 6 Xposition Yposition Zposition Zrotation Xrotation Yrotation
              JOINT RightHandMiddle2
              {
              OFFSET -2.660 0.000 0.000
              CHANNELS 6 Xposition Yposition Zposition Zrotation Xrotation Yrotation
                JOINT RightHandMiddle3
                {
                OFFSET -2.280 0.000 0.000
                CHANNELS 6 Xposition Yposition Zposition Zrotation Xrotation Yrotation
                  JOINT RightHandMiddle4
                  {
                  OFFSET -1.500 0.000 0.000
                  CHANNELS 6 Xposition Yposition Zposition Zrotation Xrotation Yrotation
                  }
                }
              }
            }
            JOINT RightHandRing1
            {
            OFFSET -9.250 0.670 -1.130
            CHANNELS 6 Xposition Yposition Zposition Zrotation Xrotation Yrotation
              JOINT RightHandRing2
              {
              OFFSET -2.470 0.000 0.000
              CHANNELS 6 Xposition Yposition Zposition Zrotation Xrotation Yrotation
                JOINT RightHandRing3
                {
                OFFSET -2.210 0.000 0.000
                CHANNELS 6 Xposition Yposition Zposition Zrotation Xrotation Yrotation
                  JOINT RightHandRing4
                  {
                  OFFSET -1.800 0.000 0.000
                  CHANNELS 6 Xposition Yposition Zposition Zrotation Xrotation Yrotation
                  }
                }
              }
            }
            JOINT RightHandPinky1
            {
            OFFSET -9.350 0.660 -2.720
            CHANNELS 6 Xposition Yposition Zposition Zrotation Xrotation Yrotation
              JOINT RightHandPinky2
              {
              OFFSET -1.630 0.000 0.000
              CHANNELS 6 Xposition Yposition Zposition Zrotation Xrotation Yrotation
                JOINT RightHandPinky3
                {
                OFFSET -1.710 0.000 0.000
                CHANNELS 6 Xposition Yposition Zposition Zrotation Xrotation Yrotation
                  JOINT RightHandPinky4
                  {
                  OFFSET -1.800 0.000 0.000
                  CHANNELS 6 Xposition Yposition Zposition Zrotation Xrotation Yrotation
                  }
                }
              }
            }
          }
        }
      }
    }
    JOINT Neck
    {
      OFFSET -0.000 36.302 0.000
      CHANNELS 6 Xposition Yposition Zposition Zrotation Xrotation Yrotation
      JOINT Head
      {
        OFFSET -0.000 13.026 -0.000
        CHANNELS 6 Xposition Yposition Zposition Zrotation Xrotation Yrotation
        End Site
        {
          OFFSET -0.000 0.052 -0.000
        }
      }
    }
  }
}
MOTION
Frames:	6
Frame Time:	0.0333333
-3.06727 24.0552 -236.499 8.63935 65.0859 -12.3409 7.87772 -5.46567 4.9444 49.7831 -79.5079 52.0977 -3.72529e-06 -38.9499 2.38419e-05 -7.2786 48.2879 2.88702e-06 -4.84288e-06 -36.011 -4.76837e-05 10.9085 -27.6964 10.6359 -7.77732 -5.23853 5.58023 32.3903 -80.8563 32.2816 0 -38.7598 -4.76837e-05 -1.81563 46.2859 3.08864e-06 2.98023e-06 -36.3839 0 -4.27568 -15.5083 -3.48462 2.98023e-06 4.57289 -4.57286 -0.0611616 -41.1888 0.0113327 -1.19209e-05 36.3014 2.38419e-05 -37.1873 1.70755e-05 -2.25888 20.5784 1.78814e-05 -2.38419e-05 -20.8226 20.2541 -18.7401 22.2119 -1.19209e-05 4.76837e-05 2.19071e-06 5.12264e-06 -31.9689 21.4824 2.38419e-05 -2.38419e-05 17.9643 -2.00844 -24.7917 0.0062 0.0497 0.0339 0 0 0 0 0.0215 0 0 0 0 0 0.022 0 0 0 0 0 0.017 0 0 0 0 -0.0068 0.0873 0.0207 0 0 0 0 0.0267 0 0 0 0 0 0.0213 0 0 0 0 0 0.018 0 0 0 0 -0.0067 0.0922 0.0055 0 0 0 0 0.0266 0 0 0 0 0 0.0228 0 0 0 0 0 0.015 0 0 0 0 -0.0067 0.0925 -0.0113 0 0 0 0 0.0247 0 0 0 0 0 0.0221 0 0 0 0 0 0.018 0 0 0 0 -0.0066 0.0935 -0.0272 0 0 0 0 0.0163 0 0 0 0 0 0.0171 0 0 0 0 0 0.018 0 0 0 0 -1.19209e-05 36.3014 2.38419e-05 36.7392 -3.4151e-06 2.1521 -21.599 0 0 32.6551 16.5128 21.6178 -22.3055 -2.98023e-06 -4.76837e-05 5.29513e-06 0 36.2749 -23.2727 0 2.38419e-05 -9.77016 -0.426195 12.2189 -0.0062 0.0497 0.0339 0 0 0 0 0.0215 0 0 0 0 0 0.022 0 0 0 0 0 0.017 0 0 0 0 0.0068 0.0873 0.0207 0 0 0 0 0.0267 0 0 0 0 0 0.0213 0 0 0 0 0 0.018 0 0 0 0 0.0067 0.0922 0.0055 0 0 0 0 0.0266 0 0 0 0 0 0.0228 0 0 0 0 0 0.015 0 0 0 0 0.0067 0.0925 -0.0113 0 0 0 0 0.0247 0 0 0 0 0 0.0221 0 0 0 0 0 0.018 0 0 0 0 0.0066 0.0935 -0.0272 0 0 0 0 0.0163 0 0 0 0 0 0.0171 0 0 0 0 0 0.018 0 0 0 0 -1.19209e-05 36.3014 2.38419e-05 -0.0645253 12.2703 0.0137141 -2.98023e-06 14.1299 -4.76837e-05 9.8184e-06 -5.12264e-06 0 
-2.94937 25.1465 -236.05 8.03395 63.6173 -11.5606 7.76794 -5.26583 4.91049 40.2726 -77.5592 42.5907 0 -39.5121 0 -8.14014 46.5258 0 0 -36.4015 -2.38419e-05 11.7396 -27.0751 11.3334 -7.66158 -5.10576 5.43563 19.8195 -78.8375 19.2826 2.98023e-06 -39.0883 0 -0.789651 44.1197 5.94644e-07 -5.96046e-06 -36.8728 0 -4.72781 -15.3328 -3.82725 -1.49012e-06 4.57016 -4.57015 0.0488091 -42.0118 0.100564 1.49012e-06 36.3015 0 -36.3489 1.53679e-05 -4.00844 20.0251 -2.38419e-05 4.76837e-05 -28.5599 0.301631 -17.234 23.7024 -5.96046e-06 -4.76837e-05 -7.05247e-06 -5.12264e-06 -59.6278 19.3081 8.9407e-06 0 8.40767 -0.657297 -25.5799 0.0062 0.0497 0.0339 0 0 0 0 0.0215 0 0 0 0 0 0.022 0 0 0 0 0 0.017 0 0 0 0 -0.0068 0.0873 0.0207 0 0 0 0 0.0267 0 0 0 0 0 0.0213 0 0 0 0 0 0.018 0 0 0 0 -0.0067 0.0922 0.0055 0 0 0 0 0.0266 0 0 0 0 0 0.0228 0 0 0 0 0 0.015 0 0 0 0 -0.0067 0.0925 -0.0113 0 0 0 0 0.0247 0 0 0 0 0 0.0221 0 0 0 0 0 0.018 0 0 0 0 -0.0066 0.0935 -0.0272 0 0 0 0 0.0163 0 0 0 0 0 0.0171 0 0 0 0 0 0.018 0 0 0 0 1.49012e-06 36.3015 0 36.5877 8.53773e-06 3.79803 -21.1327 -1.19209e-05 4.76837e-05 31.7528 17.1468 22.4546 -23.5862 0 -2.38419e-05 6.60869e-06 1.70755e-06 43.3744 -23.7142 -5.96046e-06 0 -26.3049 -1.58228 31.0815 -0.0062 0.0497 0.0339 0 0 0 0 0.0215 0 0 0 0 0 0.022 0 0 0 0 0 0.017 0 0 0 0 0.0068 0.0873 0.0207 0 0 0 0 0.0267 0 0 0 0 0 0.0213 0 0 0 0 0 0.018 0 0 0 0 0.0067 0.0922 0.0055 0 0 0 0 0.0266 0 0 0 0 0 0.0228 0 0 0 0 0 0.015 0 0 0 0 0.0067 0.0925 -0.0113 0 0 0 0 0.0247 0 0 0 0 0 0.0221 0 0 0 0 0 0.018 0 0 0 0 0.0066 0.0935 -0.0272 0 0 0 0 0.0163 0 0 0 0 0 0.0171 0 0 0 0 0 0.018 0 0 0 0 1.49012e-06 36.3015 0 -0.792579 13.5 0.185037 -2.98023e-06 14.3863 2.38419e-05 1.04587e-05 -2.56132e-05 4.26887e-07 
-2.93636 28.6543 -235.237 7.84162 61.5693 -10.9214 7.77515 -5.00547 4.90435 27.1339 -73.5237 28.9359 -1.49012e-06 -40.9359 0 -8.95158 41.2141 -8.51216e-07 -1.49012e-06 -37.633 -2.38419e-05 12.6138 -25.8957 11.9514 -7.67133 -5.04423 5.27976 8.93993 -74.2233 8.28146 8.9407e-06 -40.8469 2.38419e-05 -0.360101 39.5271 0 -2.98023e-06 -37.4575 -2.38419e-05 -4.58208 -14.8984 -3.69445 -2.98023e-06 4.56574 -4.5658 0.128343 -42.4494 0.14373 -2.98023e-06 36.3015 2.38419e-05 -40.0566 6.83019e-06 -6.51825 21.3922 1.63913e-05 0 -16.0042 -6.95825 -42.346 20.5033 -6.33299e-06 -1.19209e-05 1.43199e-05 -8.53773e-07 -56.888 20.4917 -1.77883e-05 1.19209e-05 -9.74061 1.21453 -0.27166 0.0062 0.0497 0.0339 0 0 0 0 0.0215 0 0 0 0 0 0.022 0 0 0 0 0 0.017 0 0 0 0 -0.0068 0.0873 0.0207 0 0 0 0 0.0267 0 0 0 0 0 0.0213 0 0 0 0 0 0.018 0 0 0 0 -0.0067 0.0922 0.0055 0 0 0 0 0.0266 0 0 0 0 0 0.0228 0 0 0 0 0 0.015 0 0 0 0 -0.0067 0.0925 -0.0113 0 0 0 0 0.0247 0 0 0 0 0 0.0221 0 0 0 0 0 0.018 0 0 0 0 -0.0066 0.0935 -0.0272 0 0 0 0 0.0163 0 0 0 0 0 0.0171 0 0 0 0 0 0.018 0 0 0 0 -2.98023e-06 36.3015 2.38419e-05 40.7619 -6.83019e-06 6.30078 -22.1274 1.04308e-05 0 18.2586 7.6208 49.7567 -20.5288 -1.04308e-05 2.38419e-05 5.95786e-06 -1.70755e-06 49.5972 -19.7449 7.45058e-06 -1.04308e-05 -30.4555 -1.66421 23.9106 -0.0062 0.0497 0.0339 0 0 0 0 0.0215 0 0 0 0 0 0.022 0 0 0 0 0 0.017 0 0 0 0 0.0068 0.0873 0.0207 0 0 0 0 0.0267 0 0 0 0 0 0.0213 0 0 0 0 0 0.018 0 0 0 0 0.0067 0.0922 0.0055 0 0 0 0 0.0266 0 0 0 0 0 0.0228 0 0 0 0 0 0.015 0 0 0 0 0.0067 0.0925 -0.0113 0 0 0 0 0.0247 0 0 0 0 0 0.0221 0 0 0 0 0 0.018 0 0 0 0 0.0066 0.0935 -0.0272 0 0 0 0 0.0163 0 0 0 0 0 0.0171 0 0 0 0 0 0.018 0 0 0 0 -2.98023e-06 36.3015 2.38419e-05 -3.13432 21.7847 1.16421 -2.98023e-06 13.4431 -2.38419e-05 9.60495e-06 -1.70755e-06 -2.13443e-07 
-2.88232 33.1194 -234.249 8.63953 58.9288 -13.4154 7.68112 -4.9013 4.78996 22.4246 -66.2974 22.7992 7.45058e-07 -42.9467 4.76837e-05 -10.3328 32.9499 -1.52615e-06 -1.04308e-05 -38.3919 2.38419e-05 13.4459 -23.4905 12.2654 -7.55684 -4.9024 5.09127 6.84888 -67.2161 5.7384 0 -43.1239 2.38419e-05 0.055889 31.4463 -5.00377e-07 -2.98023e-06 -38.1296 -7.15256e-05 -3.85737 -13.634 -3.10295 5.96046e-06 4.7881 -4.78809 -0.0601449 -43.0076 -0.153999 -8.9407e-06 36.3015 -2.38419e-05 -42.3114 1.02453e-05 -7.04752 21.4538 -1.19209e-05 7.15256e-05 8.38145 -6.11836 -56.3175 21.9312 1.93715e-05 1.19209e-05 1.3788e-06 3.84198e-06 -31.8151 21.3634 -5.96046e-06 -1.04308e-05 -6.68678 1.04994 -7.1478 0.0062 0.0497 0.0339 0 0 0 0 0.0215 0 0 0 0 0 0.022 0 0 0 0 0 0.017 0 0 0 0 -0.0068 0.0873 0.0207 0 0 0 0 0.0267 0 0 0 0 0 0.0213 0 0 0 0 0 0.018 0 0 0 0 -0.0067 0.0922 0.0055 0 0 0 0 0.0266 0 0 0 0 0 0.0228 0 0 0 0 0 0.015 0 0 0 0 -0.0067 0.0925 -0.0113 0 0 0 0 0.0247 0 0 0 0 0 0.0221 0 0 0 0 0 0.018 0 0 0 0 -0.0066 0.0935 -0.0272 0 0 0 0 0.0163 0 0 0 0 0 0.0171 0 0 0 0 0 0.018 0 0 0 0 -8.9407e-06 36.3015 -2.38419e-05 37.5039 -6.83019e-06 7.28326 -20.7629 2.98023e-05 2.38419e-05 14.6437 3.10576 64.3188 -22.1718 -3.27826e-05 0 -2.54448e-06 1.28066e-06 45.8428 -18.9257 2.38419e-05 1.19209e-05 -31.3155 -1.39487 21.4776 -0.0062 0.0497 0.0339 0 0 0 0 0.0215 0 0 0 0 0 0.022 0 0 0 0 0 0.017 0 0 0 0 0.0068 0.0873 0.0207 0 0 0 0 0.0267 0 0 0 0 0 0.0213 0 0 0 0 0 0.018 0 0 0 0 0.0067 0.0922 0.0055 0 0 0 0 0.0266 0 0 0 0 0 0.0228 0 0 0 0 0 0.015 0 0 0 0 0.0067 0.0925 -0.0113 0 0 0 0 0.0247 0 0 0 0 0 0.0221 0 0 0 0 0 0.018 0 0 0 0 0.0066 0.0935 -0.0272 0 0 0 0 0.0163 0 0 0 0 0 0.0171 0 0 0 0 0 0.018 0 0 0 0 -8.9407e-06 36.3015 -2.38419e-05 -1.26525 27.7565 0.589321 0 13.9704 4.76837e-05 1.06722e-05 -1.36604e-05 2.13443e-06 
-2.97183 39.083 -232.805 8.82421 57.8609 -12.9909 7.78213 -5.03286 5.27825 15.1892 -59.7491 13.6389 8.9407e-06 -44.5564 4.76837e-05 -8.90046 19.3867 -3.16782e-06 -4.47035e-06 -38.3748 -2.38419e-05 13.081 -23.1573 11.9663 -7.49961 -5.4202 5.60975 1.16143 -60.2405 0.0398806 -5.96046e-06 -44.192 0 2.2605 17.3696 2.6837e-06 5.96046e-06 -39.0263 2.38419e-05 -3.12344 -14.5552 -2.57084 -5.96046e-06 4.57215 -4.57211 0.903619 -43.4032 0.555511 -8.9407e-06 36.3015 -2.38419e-05 -37.5245 6.83019e-06 -4.72516 20.2862 5.58794e-06 -2.38419e-05 -16.6966 -12.7919 -61.1937 25.6902 -2.98023e-06 0 7.16946e-07 8.53774e-07 -51.0589 21.2285 5.96046e-06 0 -5.32334 0.760344 -10.3412 0.0062 0.0497 0.0339 0 0 0 0 0.0215 0 0 0 0 0 0.022 0 0 0 0 0 0.017 0 0 0 0 -0.0068 0.0873 0.0207 0 0 0 0 0.0267 0 0 0 0 0 0.0213 0 0 0 0 0 0.018 0 0 0 0 -0.0067 0.0922 0.0055 0 0 0 0 0.0266 0 0 0 0 0 0.0228 0 0 0 0 0 0.015 0 0 0 0 -0.0067 0.0925 -0.0113 0 0 0 0 0.0247 0 0 0 0 0 0.0221 0 0 0 0 0 0.018 0 0 0 0 -0.0066 0.0935 -0.0272 0 0 0 0 0.0163 0 0 0 0 0 0.0171 0 0 0 0 0 0.018 0 0 0 0 -8.9407e-06 36.3015 -2.38419e-05 32.7772 -8.53774e-06 4.87494 -19.6643 -1.19209e-05 2.38419e-05 17.6993 2.17713 76.192 -24.0416 1.49012e-05 2.38419e-05 6.7744e-06 -8.53774e-07 34.2056 -22.0777 0 1.19209e-05 -29.2606 -0.739037 16.3783 -0.0062 0.0497 0.0339 0 0 0 0 0.0215 0 0 0 0 0 0.022 0 0 0 0 0 0.017 0 0 0 0 0.0068 0.0873 0.0207 0 0 0 0 0.0267 0 0 0 0 0 0.0213 0 0 0 0 0 0.018 0 0 0 0 0.0067 0.0922 0.0055 0 0 0 0 0.0266 0 0 0 0 0 0.0228 0 0 0 0 0 0.015 0 0 0 0 0.0067 0.0925 -0.0113 0 0 0 0 0.0247 0 0 0 0 0 0.0221 0 0 0 0 0 0.018 0 0 0 0 0.0066 0.0935 -0.0272 0 0 0 0 0.0163 0 0 0 0 0 0.0171 0 0 0 0 0 0.018 0 0 0 0 -8.9407e-06 36.3015 -2.38419e-05 -7.1908 32.509 3.87905 1.49012e-06 12.6703 2.38419e-05 1.06722e-05 -8.53774e-06 -7.47052e-07 
-3.04147 41.782 -232.067 9.68862 57.5425 -12.9935 7.69571 -5.01158 5.41245 11.756 -56.533 9.24342 0 -44.5873 -4.76837e-05 -8.03655 11.3415 0 -4.47035e-06 -38.4367 -2.38419e-05 12.2682 -21.3378 11.065 -7.4554 -5.37742 5.44591 -2.02332 -57.0032 -2.78922 -2.98023e-06 -44.6456 -7.15256e-05 3.45996 11.3707 -0.682952 2.98023e-06 -38.647 0 -2.56893 -14.0978 -2.13376 5.96046e-06 4.49113 -4.4911 2.75318 -42.9707 1.76165 -8.9407e-06 36.3015 -7.15256e-05 -34.6664 1.36604e-05 -1.97621 20.5701 2.43075e-05 2.38419e-05 -25.7483 -12.4499 -64.4877 27.3085 -1.19209e-05 1.78814e-05 7.54134e-06 9.60495e-07 -59.5961 21.907 2.98023e-06 0 -5.41944 0.612194 -10.8345 0.0062 0.0497 0.0339 0 0 0 0 0.0215 0 0 0 0 0 0.022 0 0 0 0 0 0.017 0 0 0 0 -0.0068 0.0873 0.0207 0 0 0 0 0.0267 0 0 0 0 0 0.0213 0 0 0 0 0 0.018 0 0 0 0 -0.0067 0.0922 0.0055 0 0 0 0 0.0266 0 0 0 0 0 0.0228 0 0 0 0 0 0.015 0 0 0 0 -0.0067 0.0925 -0.0113 0 0 0 0 0.0247 0 0 0 0 0 0.0221 0 0 0 0 0 0.018 0 0 0 0 -0.0066 0.0935 -0.0272 0 0 0 0 0.0163 0 0 0 0 0 0.0171 0 0 0 0 0 0.018 0 0 0 0 -8.9407e-06 36.3015 -7.15256e-05 31.4851 -3.4151e-06 2.41565 -16.8297 1.49012e-05 0 14.7938 -3.46093 82.5466 -23.9202 5.96046e-06 1.19209e-05 4.25945e-06 1.2273e-06 31.7014 -23.3544 1.19209e-05 -5.96046e-06 -26.8545 0.302947 8.91526 -0.0062 0.0497 0.0339 0 0 0 0 0.0215 0 0 0 0 0 0.022 0 0 0 0 0 0.017 0 0 0 0 0.0068 0.0873 0.0207 0 0 0 0 0.0267 0 0 0 0 0 0.0213 0 0 0 0 0 0.018 0 0 0 0 0.0067 0.0922 0.0055 0 0 0 0 0.0266 0 0 0 0 0 0.0228 0 0 0 0 0 0.015 0 0 0 0 0.0067 0.0925 -0.0113 0 0 0 0 0.0247 0 0 0 0 0 0.0221 0 0 0 0 0 0.018 0 0 0 0 0.0066 0.0935 -0.0272 0 0 0 0 0.0163 0 0 0 0 0 0.0171 0 0 0 0 0 0.018 0 0 0 0 -8.9407e-06 36.3015 -7.15256e-05 -16.2475 31.8045 8.7317 2.23517e-06 11.8261 7.15256e-05 1.21663e-05 -1.8783e-05 9.60495e-07 
